<svg xmlns="http://www.w3.org/2000/svg" viewBox="0 0 1672.5 646.08"><title>Fichier 7</title><g id="Calque_2" data-name="Calque 2"><g id="Calque_1-2" data-name="Calque 1"><path d="M482.32,556.52c-20.08,10.65-88.13,18.48-169,18.48-96.65,0-175-11.19-175-25V150c0,13.81,78.35,25,175,25,28.88,0,56.13-1,80.14-2.77L403.58,216,478.94,541.9Z" style="fill:none;stroke:#fff;stroke-miterlimit:10;stroke-width:10px"/><path d="M138.34,500c0,13.82,72.68,25,162.5,25" style="fill:none;stroke:#fff;stroke-miterlimit:10;stroke-width:10px"/><path d="M200.84,407.21c27.56,3.32,62.27,5.29,100,5.29" style="fill:none;stroke:#fff;stroke-miterlimit:10;stroke-width:10px"/><path d="M400.84,407.21c-27.57,3.32-62.27,5.29-100,5.29" style="fill:none;stroke:#fff;stroke-miterlimit:10;stroke-width:10px"/><path d="M400.84,332.21c-27.57,3.32-62.27,5.29-100,5.29" style="fill:none;stroke:#fff;stroke-miterlimit:10;stroke-width:10px"/><path d="M138.34,237.5c0,13.82,72.68,25,162.5,25" style="fill:none;stroke:#fff;stroke-miterlimit:10;stroke-width:10px"/><path d="M538.34,10a140,140,0,0,1,140,140c0,37.43-35.47,90.79-35.82,91.32a17.68,17.68,0,0,1-8.9,5.82c-2.32.42-57.35,10.71-91.94,45.31l-.14.14c-20.88,20.91-36.37,44.92-43.63,67.58-7.54,23.56-5.51,43.49,5.66,56.54a36,36,0,0,1-1,4,171.64,171.64,0,0,0-5.18,25.19c-2.29,18.44-.28,31.5,6.17,39.76a39.87,39.87,0,0,1-1,4.05,171.64,171.64,0,0,0-5.18,25.19c-2.29,18.44-.28,31.5,6.17,39.76a39.87,39.87,0,0,1-1,4A172.74,172.74,0,0,0,498,579.83L494.32,564l-3.94-17-1-4.3-2.95-12.76L415.58,223.47,411.08,204l-5.61-24.27L401,160.23l-.64-2.74a80.52,80.52,0,0,1-1.62-17.1,112.22,112.22,0,0,1,1.2-11.37A140,140,0,0,1,538.34,10m0-10A150,150,0,0,0,390,127.53,124.69,124.69,0,0,0,388.71,140a90.83,90.83,0,0,0,1.88,19.73l.63,2.75L395.73,182l5.61,24.27c1.23,5.36,3.26,14.12,4.5,19.48l70.85,306.44,3.95,17.05,3.94,17,17.52,75.79c.63,2.69,1.48,4,2.34,4s1.74-1.32,2.43-4l4.23-12c2.17-5,3.23-9.8,2.35-10.54l-.75-.75c-13.59-13.59-.52-57.32-.52-57.32,1.58-5.27,2.15-10.19,1.27-10.93l-.75-.75c-13.59-13.59-.52-57.32-.52-57.32,1.58-5.27,2.15-10.19,1.27-10.93l-.75-.75c-13.59-13.59-.52-57.32-.52-57.32,1.58-5.27,2.15-10.19,1.27-10.93l-.75-.75c-21.05-21.05-5-71.25,35.92-112.21l.13-.13C581.53,266.74,635.41,257,635.41,257c5.41-1,12.34-5.52,15.41-10.08,0,0,37.52-55.91,37.52-96.9a150,150,0,0,0-150-150Z" style="fill:#fff"/><path d="M635.49,254.22v10h0a36.93,36.93,0,0,1,7.67.76A21.24,21.24,0,0,1,654,270.54c2.41,2.42,4.34,10.3,2.52,25.2A153.41,153.41,0,0,1,652,317.91a4.2,4.2,0,0,1-3.09,2.26h-.74c-6.68,0-66.38,1.16-106.5,41.29-11.34,11.33-22,26.78-27,34.3-2.18-7.64-1.45-17.84,2.28-29.48,6.3-19.7,20.06-40.85,38.71-59.53l.15-.15c25.73-25.74,57-42.37,79.67-42.37v-10m0,0c-24.61,0-58,16.53-86.74,45.3l-.13.13c-40.88,41-57,91.16-35.92,112.21l.75.75a.47.47,0,0,0,.31.11c1.16,0,3.94-3,6.56-7.26,0,0,13.88-22.39,28.43-36.94,37.31-37.32,93.3-38.36,99.43-38.36h.75a14,14,0,0,0,12.66-9.39s13.08-43.73-.5-57.31a31.08,31.08,0,0,0-15.84-8.27,46.94,46.94,0,0,0-9.76-1Z" style="fill:#fff"/><path d="M635.5,333.22c7.15,0,12.87,1.67,17,4.93.57.46,1.09.93,1.56,1.39,2.41,2.42,4.34,10.3,2.52,25.2A153.41,153.41,0,0,1,652,386.91a4.2,4.2,0,0,1-3.09,2.26h-.74c-6.68,0-66.38,1.16-106.5,41.29-11.36,11.35-22.09,26.84-27,34.34-3.28-11.24-.09-27.87,9.3-46.29,7.53-14.76,18.55-29.59,31.87-42.91,25.74-25.74,57-42.37,79.68-42.37h0m0-10c-24.62,0-58,16.53-86.75,45.3-14.55,14.55-26,30.27-33.7,45.44-14,27.56-15.94,53.31-2.35,66.9l.75.75a.47.47,0,0,0,.31.11c1.16,0,3.94-3,6.56-7.26,0,0,13.88-22.39,28.43-36.94,37.31-37.32,93.3-38.36,99.43-38.36h.75a14,14,0,0,0,12.66-9.39s13.08-43.73-.5-57.31a29.39,29.39,0,0,0-2.36-2.11c-6.06-4.84-14-7.14-23.23-7.14Z" style="fill:#fff"/><path d="M635.5,402.22c7.15,0,12.87,1.67,17,4.93.57.46,1.09.93,1.56,1.39,2.41,2.42,4.34,10.3,2.52,25.2A153.41,153.41,0,0,1,652,455.91a4.2,4.2,0,0,1-3.09,2.26h-.74c-6.68,0-66.38,1.16-106.5,41.29-11.36,11.35-22.09,26.84-27,34.34-3.28-11.24-.09-27.87,9.3-46.29,7.53-14.76,18.55-29.59,31.87-42.91,25.74-25.74,57-42.37,79.68-42.37h0m0-10c-24.62,0-58,16.53-86.75,45.3-14.55,14.55-26,30.27-33.7,45.44-14,27.56-15.94,53.31-2.35,66.9l.75.75a.47.47,0,0,0,.31.11c1.16,0,3.94-3,6.56-7.26,0,0,13.88-22.39,28.43-36.94,37.31-37.32,93.3-38.36,99.43-38.36h.75a14,14,0,0,0,12.66-9.39s13.08-43.73-.5-57.31a29.39,29.39,0,0,0-2.36-2.11c-6.06-4.84-14-7.14-23.23-7.14Z" style="fill:#fff"/><path d="M635.5,471.22c7.15,0,12.87,1.67,17,4.93.57.46,1.09.93,1.56,1.39,2.41,2.42,4.34,10.3,2.52,25.2A153.41,153.41,0,0,1,652,524.91a4.2,4.2,0,0,1-3.09,2.26h-.74c-6.68,0-66.38,1.16-106.5,41.29-11.36,11.35-22.09,26.84-27,34.34-3.28-11.24-.09-27.87,9.3-46.29,7.53-14.76,18.55-29.59,31.87-42.91,25.74-25.74,57-42.37,79.68-42.37h0m0-10c-24.62,0-58,16.53-86.75,45.3-14.55,14.55-26,30.27-33.7,45.44-14,27.56-15.94,53.31-2.35,66.9l.75.75a.47.47,0,0,0,.31.11c1.16,0,3.94-3,6.56-7.26,0,0,13.88-22.39,28.43-36.94,37.31-37.32,93.3-38.36,99.43-38.36h.75a14,14,0,0,0,12.66-9.39s13.08-43.73-.5-57.31a29.39,29.39,0,0,0-2.36-2.11c-6.06-4.84-14-7.14-23.23-7.14Z" style="fill:#fff"/><path d="M393.48,172.23c-24,1.77-51.26,2.77-80.14,2.77-96.65,0-175-11.19-175-25s78.35-25,175-25c27.5,0,53.53.91,76.68,2.53A150,150,0,0,0,388.34,150Z" style="fill:none;stroke:#fff;stroke-miterlimit:10;stroke-width:10px"/><path d="M138.33,425v50s-300-312.5,0-298.16V212.5C-99.17,187.5,138.33,425,138.33,425Z" style="fill:none;stroke:#fff;stroke-miterlimit:10;stroke-width:10px"/><text transform="translate(755 345.28)" style="font-size:304.24591064453125px;fill:none;stroke:#fff;stroke-miterlimit:10;stroke-width:10px;font-family:Consolas;letter-spacing:0.2000014042788376em">YOUR</text><text transform="translate(792.5 489.29)" style="font-size:150px;fill:#fff;font-family:Consolas;letter-spacing:0.075em">Devlog</text></g></g></svg>