<svg xmlns="http://www.w3.org/2000/svg" width="39.463" height="45.1" viewBox="0 0 39.463 45.1">
  <path id="Icon_awesome-book" data-name="Icon awesome-book" d="M39.463,31.711V2.114A2.109,2.109,0,0,0,37.348,0H8.456A8.458,8.458,0,0,0,0,8.456V36.644A8.458,8.458,0,0,0,8.456,45.1H37.348a2.109,2.109,0,0,0,2.114-2.114V41.577a2.131,2.131,0,0,0-.784-1.647,19.644,19.644,0,0,1,0-6.58A2.1,2.1,0,0,0,39.463,31.711ZM11.275,11.8a.53.53,0,0,1,.529-.529H30.478a.53.53,0,0,1,.529.529v1.762a.53.53,0,0,1-.529.529H11.8a.53.53,0,0,1-.529-.529Zm0,5.638a.53.53,0,0,1,.529-.529H30.478a.53.53,0,0,1,.529.529V19.2a.53.53,0,0,1-.529.529H11.8a.53.53,0,0,1-.529-.529ZM33.6,39.463H8.456a2.819,2.819,0,0,1,0-5.638H33.6A31.711,31.711,0,0,0,33.6,39.463Z" fill="#d65a31"/>
</svg>
