<svg xmlns="http://www.w3.org/2000/svg" width="20" height="22.857" viewBox="0 0 20 22.857">
  <path id="Icon_awesome-discord" data-name="Icon awesome-discord" d="M13.269,10.857A1.17,1.17,0,1,1,12.1,9.589,1.218,1.218,0,0,1,13.269,10.857ZM7.931,9.589a1.273,1.273,0,0,0,0,2.537A1.218,1.218,0,0,0,9.1,10.857,1.21,1.21,0,0,0,7.931,9.589ZM20,2.354v20.5c-2.879-2.544-1.958-1.7-5.3-4.811L15.3,20.16H2.343A2.349,2.349,0,0,1,0,17.806V2.354A2.349,2.349,0,0,1,2.343,0H17.657A2.349,2.349,0,0,1,20,2.354ZM16.743,13.189A15.3,15.3,0,0,0,15.1,6.526a5.651,5.651,0,0,0-3.211-1.2l-.16.183A7.606,7.606,0,0,1,14.571,6.96a9.711,9.711,0,0,0-8.537-.331c-.423.194-.674.331-.674.331a7.71,7.71,0,0,1,3.006-1.5l-.114-.137a5.651,5.651,0,0,0-3.211,1.2,15.3,15.3,0,0,0-1.646,6.663A4.144,4.144,0,0,0,6.88,14.926s.423-.514.766-.949a3.554,3.554,0,0,1-2-1.349c.168.118.445.27.469.286a8.331,8.331,0,0,0,7.131.4,6.54,6.54,0,0,0,1.314-.674A3.606,3.606,0,0,1,12.491,14c.343.434.754.926.754.926A4.178,4.178,0,0,0,16.743,13.189Z" fill="#d65a31"/>
</svg>
