<svg xmlns="http://www.w3.org/2000/svg" width="30" height="30" viewBox="0 0 30 30">
  <path id="Icon_material-exit-to-app" data-name="Icon material-exit-to-app" d="M16.317,25.483l2.35,2.35L27,19.5l-8.333-8.333-2.35,2.35,4.3,4.317H4.5v3.333H20.617l-4.3,4.317ZM31.167,4.5H7.833A3.332,3.332,0,0,0,4.5,7.833V14.5H7.833V7.833H31.167V31.167H7.833V24.5H4.5v6.667A3.332,3.332,0,0,0,7.833,34.5H31.167A3.343,3.343,0,0,0,34.5,31.167V7.833A3.343,3.343,0,0,0,31.167,4.5Z" transform="translate(-4.5 -4.5)" fill="#fff"/>
</svg>
