<svg xmlns="http://www.w3.org/2000/svg" width="59.43" height="46.215" viewBox="0 0 59.43 46.215">
  <path id="Icon_awesome-home" data-name="Icon awesome-home" d="M28.926,14.243,9.9,29.909V46.818a1.651,1.651,0,0,0,1.651,1.651l11.561-.03a1.651,1.651,0,0,0,1.642-1.651V36.913a1.651,1.651,0,0,1,1.651-1.651h6.6a1.651,1.651,0,0,1,1.651,1.651V46.78a1.651,1.651,0,0,0,1.651,1.656l11.557.032a1.651,1.651,0,0,0,1.651-1.651V29.9L30.5,14.243A1.258,1.258,0,0,0,28.926,14.243ZM58.972,24.891l-8.625-7.109V3.492a1.238,1.238,0,0,0-1.238-1.238H43.332a1.238,1.238,0,0,0-1.238,1.238v7.491l-9.237-7.6a4.952,4.952,0,0,0-6.293,0L.448,24.891a1.238,1.238,0,0,0-.165,1.744l2.631,3.2A1.238,1.238,0,0,0,4.659,30L28.926,10.013a1.258,1.258,0,0,1,1.578,0L54.773,30a1.238,1.238,0,0,0,1.744-.165l2.631-3.2a1.238,1.238,0,0,0-.175-1.747Z" transform="translate(0.001 -2.254)" fill="#fff"/>
</svg>
