<svg xmlns="http://www.w3.org/2000/svg" width="27.002" height="27" viewBox="0 0 27.002 27">
  <path id="Icon_ionic-ios-color-palette" data-name="Icon ionic-ios-color-palette" d="M30.241,24.462a3.284,3.284,0,0,0-1.73-.633,2.574,2.574,0,0,1-1.589-.7,1.949,1.949,0,0,1,0-3.08l2.13-1.891a6.846,6.846,0,0,0,0-10.491A13.518,13.518,0,0,0,20.067,4.5,17,17,0,0,0,8.9,8.726,12.319,12.319,0,0,0,8.9,27.6a16.462,16.462,0,0,0,10.751,3.9h.12a15.824,15.824,0,0,0,10.462-3.684A2.374,2.374,0,0,0,30.241,24.462Zm-21.8-9.274a2.25,2.25,0,1,1,2.25,2.25A2.248,2.248,0,0,1,8.438,15.188Zm2.813,8.859A2.25,2.25,0,1,1,13.5,21.8,2.248,2.248,0,0,1,11.25,24.047Zm4.5-11.32A2.25,2.25,0,1,1,18,10.477,2.248,2.248,0,0,1,15.75,12.727Zm5.063,15.4a3.375,3.375,0,1,1,3.375-3.375A3.376,3.376,0,0,1,20.813,28.125ZM22.5,13.5a2.25,2.25,0,1,1,2.25-2.25A2.248,2.248,0,0,1,22.5,13.5Z" transform="translate(-4.498 -4.5)" fill="#d65a31"/>
</svg>
