<svg xmlns="http://www.w3.org/2000/svg" width="20" height="20" viewBox="0 0 20 20">
  <path id="Icon_awesome-twitter-square" data-name="Icon awesome-twitter-square" d="M17.857,2.25H2.143A2.143,2.143,0,0,0,0,4.393V20.107A2.143,2.143,0,0,0,2.143,22.25H17.857A2.143,2.143,0,0,0,20,20.107V4.393A2.143,2.143,0,0,0,17.857,2.25ZM15.674,9.339c.009.125.009.254.009.379a8.274,8.274,0,0,1-8.33,8.33,8.292,8.292,0,0,1-4.5-1.312,6.168,6.168,0,0,0,.705.036A5.87,5.87,0,0,0,7.2,15.522,2.932,2.932,0,0,1,4.46,13.491a3.156,3.156,0,0,0,1.321-.054,2.928,2.928,0,0,1-2.344-2.875v-.036a2.926,2.926,0,0,0,1.321.371,2.922,2.922,0,0,1-1.3-2.437,2.891,2.891,0,0,1,.4-1.478,8.314,8.314,0,0,0,6.036,3.062,2.934,2.934,0,0,1,5-2.674,5.737,5.737,0,0,0,1.857-.705,2.92,2.92,0,0,1-1.286,1.612,5.827,5.827,0,0,0,1.687-.455A6.163,6.163,0,0,1,15.674,9.339Z" transform="translate(0 -2.25)" fill="#d65a31"/>
</svg>
